<svg id="Layer_1" data-name="Layer 1" xmlns="http://www.w3.org/2000/svg" viewBox="0 0 207 38"><defs><style>.cls-1{fill:#6f6f6f;}</style></defs><g id="Layer_2" data-name="Layer 2"><g id="Layer_1-2" data-name="Layer 1-2"><path class="cls-1" d="M76.68,9.15c-.56,0-2.45.92-4.83,3.49s-5.21,6-7.78,6a1.1,1.1,0,0,1-1.24-1,1,1,0,0,1,0-.24c0-.44.35-.85,1-1,2.43-.72,6.24-3.87,6.24-6a1,1,0,0,0-.88-1.16h-.15c-1,0-4,.49-7.64,4.85a1.9,1.9,0,0,1-1.17.8c-.35,0-.75-.64-.75-1.92v-.39c.11-1.7,1-2.4,1-2.95,0-.39-.16-.51-.61-.51-1,0-3,2.44-3.39,2.44s-.63-1.12-1-1.54c-.48-.64-1.15-.8-3-.8-1,0-1.49.08-2.34.08s-1.18,0-1.36-.46S45.76,1,39.34,1c-1.43,0-2.94.62-2.94,2.56s1.16,4.57,6,6.17c.12,0,.24.05.24.15s-2.29,3.3-4.36,3.66a.36.36,0,0,1-.41-.31v-.07a8.2,8.2,0,0,0,.33-1.82c0-1-.31-2.37-2.18-2.37s-3.88.83-9.1,5.87l-.58.55a7.65,7.65,0,0,1-1.14.9,2.15,2.15,0,0,1-1.18.41c-.09,0-.16-.11.07-.43L24.3,16l1.08-1.49c1-1.43,2.39-3.25,2.75-3.65.58-.67.88-1,.88-1.21s-.36-.46-.8-.46a5.32,5.32,0,0,0-3.16,1.42c-.44.43-1.62,1.66-3.09,3.08-.39.37-.8.76-1.22,1.14-2.39,2.2-5.15,4.4-6.65,4.4-.61,0-1.17-.41-1.17-1.37a13.21,13.21,0,0,1,2.51-5.05c.21-.3.44-.6.67-.9a23.83,23.83,0,0,1,2.55-2.76c3.8-3.5,8.23-5.2,11-5.2a19.11,19.11,0,0,1,2.72.26.22.22,0,0,0,.25-.11L34.7.28s0-.1,0-.11A3.57,3.57,0,0,0,33.5,0C30.41,0,23.72,1.54,17,6.4a38.48,38.48,0,0,0-4.78,4c-.22.21-.43.43-.63.64-2.95,3.13-4.32,6-4.32,8,0,2.57,2.41,2.89,3.67,2.89,3.33,0,4.81-1.54,5.46-1.54S16,22,15,22.61c-8.24,5-15,9.26-15,13.22,0,1.8,1.66,1.91,2.92,1.91S10.35,37,19.8,22.34a6.47,6.47,0,0,1,1.87-1.59c.69-.5,2.94-2.14,3.39-2.14s.43.19.41.39a8.8,8.8,0,0,0-.32,1.7,1.91,1.91,0,0,0,2.06,1.67c2.87,0,5-2.05,6.69-3.88A16.52,16.52,0,0,1,36.54,16a1.93,1.93,0,0,1,1.06-.36c.3,0,.42.12.42.31V16a18.57,18.57,0,0,0-.57,3.15v.09c0,1.23.41,3,3.28,3A6.2,6.2,0,0,0,45,20.17a16.37,16.37,0,0,0,3.17-4.76,11.3,11.3,0,0,0,1.12-3.85.34.34,0,0,1,.3-.38h.08c.32,0,1.21.1,1.6.13a1.13,1.13,0,0,1,1,1.2,6.33,6.33,0,0,1-.82,2.31c-.89,1.76-2.32,4-3.34,5.52l-.92,1.39s-.27.32.14.32h3.75a.62.62,0,0,0,.46-.32c.05-.06.43-.65.92-1.4l2.35-3.59a.52.52,0,0,1,.43-.27c.59,0-.13,1.5,2.06,1.5a6.65,6.65,0,0,0,1.39-.31c.16,0,.18.13.18.26a11.45,11.45,0,0,0-.35,1.54v.35c0,1,.25,2.68,2,2.68,3.46,0,7.78-4.39,8-4.42s.17,0,.17.18-.49,1.89-5.56,8-7.55,8.56-7.55,9.89A1.76,1.76,0,0,0,57.23,38c.51,0,2.73-.12,8-8.67,3.77-6.1,5.54-9.87,7.54-12.91a24.62,24.62,0,0,1,2.81-3.63c1.54-1.54,2-2.33,2-2.69a.86.86,0,0,0-.75-.95Zm-9.36,2.42c.11,0,.26.09.26.22,0,.9-2.37,3.05-3.12,3.05a.31.31,0,0,1-.31-.28h0c0-.68,2.39-3,3.19-3ZM4.79,35A.74.74,0,0,1,4,34.35a.67.67,0,0,1,0-.2c0-1.76,6.12-6.37,6.85-6.38.19,0,.24.07.24.22C11.05,29.4,6.58,35,4.79,35ZM32,18.08a3.89,3.89,0,0,1-1.71,1c-.66,0-.86-.36-.88-.7a2,2,0,0,1,.16-.94,8,8,0,0,1,1.28-2c1.63-2,4.12-3.92,4.75-3.93.39,0,.55.15.57.32,0,.7-.94,1.18-1.55,1.63s-1,.68-.88,1.12c0,.25.39.31.43.73a.89.89,0,0,1-.13.48A9.25,9.25,0,0,1,32,18.08ZM39.63,4.41a1.27,1.27,0,0,1,1.22-1.33H41c3.88,0,5.8,5.51,5.8,5.86,0,.17-.1.27-.38.27C45.05,9.21,39.63,7.1,39.63,4.41ZM42.2,18.83a.72.72,0,0,1-.8-.61v-.11A4.37,4.37,0,0,1,42.27,16a10.2,10.2,0,0,1,2.29-2.61c.84-.51,1.29-1,1.28-1.28s-.6-.66-.66-.93.19-.51.77-.35c.82.21,1.43.23,1.45.84a12.19,12.19,0,0,1-1.45,4C45,17.36,43.74,18.83,42.2,18.83Z"/><path class="cls-1" d="M78.86,4.85a4,4,0,0,0-2.54,2.63c0,.64,1,1.09,1.31,1.09A3,3,0,0,0,79.8,6,1.09,1.09,0,0,0,78.86,4.85Z"/><path class="cls-1" d="M100.44,19.57h-1l-.23-1a4,4,0,0,1-3,1.25c-3.34,0-4.64-1.94-4.64-4.15s1.38-4.15,4.59-4.15c2.4,0,3.93,1.2,4.12,2.75H98.53a2.25,2.25,0,0,0-2.36-1.52c-2.06,0-2.83,1.24-2.83,3a2.58,2.58,0,0,0,2.74,2.86A2.4,2.4,0,0,0,98.8,16.5H96.58V15.25h3.88Z"/><path class="cls-1" d="M101.6,15.64c0-2.22,1.31-4.15,4.64-4.15s4.63,1.93,4.63,4.15-1.31,4.15-4.63,4.15-4.64-1.94-4.64-4.15m7.55,0a2.91,2.91,0,1,0-5.82,0,2.91,2.91,0,0,0,5.82,0"/><path class="cls-1" d="M112,11.71h4.27c3.08,0,3.85,1.75,3.85,4,0,1.7-.78,3.86-3.46,3.86h-4.63Zm1.66,6.62H116c1.19,0,2.46-.38,2.46-2.68,0-2.57-1.62-2.71-2.54-2.71H113.7Z"/><path class="cls-1" d="M121.45,11.71h5c2,0,2.66.91,2.66,2.13a1.86,1.86,0,0,1-1.3,1.89h0c.93.2,1.14,1,1.14,2.13a3.26,3.26,0,0,0,.34,1.68h-1.81a2.82,2.82,0,0,1-.2-1.19c0-1.12-.15-1.91-1.37-1.91h-2.81v3.13h-1.64ZM126,15.23c.91,0,1.41-.28,1.41-1.16s-.52-1.13-1.41-1.13h-2.86v2.29Z"/><polygon class="cls-1" points="130.43 11.71 137.27 11.71 137.27 12.94 132.08 12.94 132.08 14.92 137.06 14.92 137.06 16.15 132.08 16.15 132.08 18.33 137.35 18.33 137.35 19.57 130.43 19.57 130.43 11.71"/><path class="cls-1" d="M142.29,11.71h1.65v5.48c0,1.1-.48,2.6-2.94,2.6-3,0-3-1.9-3-3.05h1.65c0,.81,0,1.81,1.37,1.81s1.31-1,1.31-1.82Z"/><path class="cls-1" d="M155.51,18.76a4.15,4.15,0,0,1-3,1c-2.29,0-3.13-1.26-3.13-2.44a2.62,2.62,0,0,1,2.1-2.31,2,2,0,0,1-.82-1.54c0-1.09,1.09-1.77,2.37-1.77,1.75,0,2.28,1,2.28,1.71,0,1.1-1.11,1.62-1.59,1.81l1.8,1.66a3.35,3.35,0,0,0,.65-1.29l1.14.3a4.35,4.35,0,0,1-.9,1.81l2,1.87h-2.05Zm-3.26-3c-.51.25-1.29.65-1.29,1.43,0,1.2,1.13,1.45,1.82,1.45a2.63,2.63,0,0,0,1.84-.71Zm1.66-2.31c0-.51-.39-.75-.91-.75s-.9.36-.9.71.45.83.75,1.13c.6-.29,1.06-.51,1.06-1.09"/><path class="cls-1" d="M162.91,11.71h5.21c1.8,0,2.26.95,2.26,2a1.59,1.59,0,0,1-1.07,1.63,1.87,1.87,0,0,1,1.44,1.95,2.35,2.35,0,0,1-2.68,2.32h-5.15Zm1.65,3.18h3.09c.46,0,1.07-.11,1.07-1,0-.65-.4-1-1.36-1h-2.8Zm0,3.44h3c.74,0,1.49-.15,1.49-1.16A1.09,1.09,0,0,0,168,16.05h-3.4Z"/><path class="cls-1" d="M171.66,15.64c0-2.22,1.3-4.15,4.63-4.15s4.63,1.93,4.63,4.15-1.3,4.15-4.63,4.15-4.63-1.94-4.63-4.15m7.54,0a2.91,2.91,0,1,0-5.82,0,2.91,2.91,0,0,0,5.82,0"/><polygon class="cls-1" points="184.65 16.57 181.21 11.71 183.23 11.71 185.48 15.21 187.73 11.71 189.75 11.71 186.31 16.57 186.31 19.57 184.65 19.57 184.65 16.57"/><path class="cls-1" d="M197,14.61a2.3,2.3,0,0,0-2.54-1.89c-1.54,0-2.65,1-2.65,3.08a2.63,2.63,0,0,0,2.5,2.77h.27a2.25,2.25,0,0,0,2.42-2h1.79c-.24,1.54-1.26,3.23-4.5,3.23A3.92,3.92,0,0,1,190,15.66c0-2.22,1.3-4.15,4.4-4.15,2.72,0,4.12,1.43,4.31,3.12Z"/><polygon class="cls-1" points="200.07 11.71 206.91 11.71 206.91 12.94 201.72 12.94 201.72 14.92 206.7 14.92 206.7 16.15 201.72 16.15 201.72 18.33 207 18.33 207 19.57 200.07 19.57 200.07 11.71"/><rect class="cls-1" x="85.06" y="8.7" width="0.71" height="13.89"/></g></g></svg>